<svg width="32" height="32" viewBox="0 0 32 32" fill="none" xmlns="http://www.w3.org/2000/svg">
<path d="M0 16C0 7.16344 7.16344 0 16 0C24.8366 0 32 7.16344 32 16C32 24.8366 24.8366 32 16 32C7.16344 32 0 24.8366 0 16Z" fill="black"/>
<path d="M10.728 10.808C11.448 10.808 12.0507 10.8987 12.536 11.08C13.0213 11.2613 13.4827 11.528 13.92 11.88L13.144 12.784C12.7973 12.4907 12.4293 12.2827 12.04 12.16C11.656 12.032 11.2533 11.968 10.832 11.968C10.2293 11.968 9.672 12.112 9.16 12.4C8.648 12.6827 8.23467 13.1547 7.92 13.816C7.61067 14.472 7.456 15.3627 7.456 16.488C7.456 17.5813 7.60267 18.4587 7.896 19.12C8.19467 19.7813 8.59733 20.2587 9.104 20.552C9.61067 20.8453 10.176 20.992 10.8 20.992C11.4187 20.992 11.9253 20.8987 12.32 20.712C12.72 20.5253 13.0667 20.312 13.36 20.072L14.08 20.984C13.744 21.3093 13.3067 21.592 12.768 21.832C12.2293 22.0667 11.568 22.184 10.784 22.184C9.89333 22.184 9.08533 21.9653 8.36 21.528C7.64 21.0907 7.06933 20.4507 6.648 19.608C6.22667 18.76 6.016 17.72 6.016 16.488C6.016 15.2507 6.22933 14.2107 6.656 13.368C7.088 12.5253 7.66133 11.888 8.376 11.456C9.096 11.024 9.88 10.808 10.728 10.808Z" fill="#D0FF00"/>
<path d="M25.6 14.072C25.6 14.6213 25.48 15.1013 25.24 15.512C25.0053 15.9227 24.6853 16.2613 24.28 16.528C23.8747 16.7947 23.4187 16.9893 22.912 17.112L26.176 22H24.512L21.504 17.272H20.016V22H18.624V10.984H21.456C22.816 10.984 23.8453 11.2453 24.544 11.768C25.248 12.2853 25.6 13.0533 25.6 14.072ZM24.112 14.072C24.112 13.3627 23.9093 12.856 23.504 12.552C23.0987 12.2427 22.4693 12.088 21.616 12.088H20.016V16.184H21.616C22.4053 16.184 23.0187 16.024 23.456 15.704C23.8933 15.3787 24.112 14.8347 24.112 14.072Z" fill="#044BFF"/>
</svg>
