<svg width="32" height="32" viewBox="0 0 32 32" fill="none" xmlns="http://www.w3.org/2000/svg">
<path d="M0 16C0 7.16344 7.16344 0 16 0C24.8366 0 32 7.16344 32 16C32 24.8366 24.8366 32 16 32C7.16344 32 0 24.8366 0 16Z" fill="black"/>
<path d="M11.1176 9.9215C11.962 9.9215 12.6788 10.0348 13.2681 10.2615C13.8631 10.4825 14.4071 10.797 14.9001 11.205L13.5316 12.854C13.2086 12.5877 12.8516 12.378 12.4606 12.225C12.0696 12.0663 11.6446 11.987 11.1856 11.987C10.6926 11.987 10.2421 12.1287 9.83414 12.412C9.42614 12.6897 9.10031 13.1317 8.85664 13.738C8.61297 14.3387 8.49114 15.1207 8.49114 16.084C8.49114 17.0303 8.60731 17.8038 8.83964 18.4045C9.07764 18.9995 9.40347 19.4387 9.81714 19.722C10.2308 19.9997 10.704 20.1385 11.2366 20.1385C11.826 20.1385 12.3161 20.028 12.7071 19.807C13.0981 19.586 13.458 19.3452 13.7866 19.0845L15.0531 20.6995C14.6111 21.1358 14.0671 21.5098 13.4211 21.8215C12.7751 22.1332 11.996 22.289 11.0836 22.289C10.0183 22.289 9.07197 22.0538 8.24464 21.5835C7.42297 21.1075 6.77697 20.4105 6.30664 19.4925C5.84197 18.5688 5.60964 17.4327 5.60964 16.084C5.60964 14.7693 5.85047 13.653 6.33214 12.735C6.81947 11.817 7.47964 11.12 8.31264 10.644C9.14564 10.1623 10.0806 9.9215 11.1176 9.9215ZM27.3205 13.7975C27.3205 14.3585 27.2157 14.8487 27.006 15.268C26.7963 15.6873 26.513 16.0415 26.156 16.3305C25.799 16.6195 25.3995 16.8518 24.9575 17.0275L28.043 22H24.8895L22.3395 17.495H21.549V22H18.761V10.219H22.467C24.0707 10.219 25.2805 10.5108 26.0965 11.0945C26.9125 11.6782 27.3205 12.5792 27.3205 13.7975ZM24.4475 13.7975C24.4475 13.2308 24.2803 12.82 23.946 12.565C23.6173 12.3043 23.1272 12.174 22.4755 12.174H21.549V15.5825H22.586C23.1923 15.5825 23.6542 15.4408 23.9715 15.1575C24.2888 14.8742 24.4475 14.4208 24.4475 13.7975Z" fill="#D0FF00"/>
</svg>
