<svg width="32" height="32" viewBox="0 0 32 32" fill="none" xmlns="http://www.w3.org/2000/svg">
<path d="M0 16C0 7.16344 7.16344 0 16 0V0C24.8366 0 32 7.16344 32 16V16C32 24.8366 24.8366 32 16 32V32C7.16344 32 0 24.8366 0 16V16Z" fill="black"/>
<path d="M6.708 18.512C6.91867 18.512 7.11467 18.4773 7.296 18.408C7.48 18.3387 7.64933 18.2507 7.804 18.144L8.132 18.584C7.948 18.7413 7.72667 18.8653 7.468 18.956C7.20933 19.0467 6.956 19.092 6.708 19.092C6.28933 19.092 5.932 19.0027 5.636 18.824C5.34267 18.6427 5.11867 18.3893 4.964 18.064C4.80933 17.736 4.732 17.352 4.732 16.912C4.732 16.4907 4.80933 16.1133 4.964 15.78C5.12133 15.444 5.34667 15.18 5.64 14.988C5.936 14.796 6.29467 14.7 6.716 14.7C6.98533 14.7 7.23733 14.7413 7.472 14.824C7.70933 14.904 7.92667 15.0253 8.124 15.188L7.796 15.636C7.61733 15.5107 7.43733 15.4173 7.256 15.356C7.07733 15.292 6.89467 15.26 6.708 15.26C6.34533 15.26 6.04667 15.396 5.812 15.668C5.57733 15.94 5.46 16.3547 5.46 16.912C5.46 17.2853 5.51333 17.5907 5.62 17.828C5.72933 18.0627 5.87733 18.236 6.064 18.348C6.25333 18.4573 6.468 18.512 6.708 18.512Z" fill="#FF0000"/>
<path d="M6.708 18.512C6.91867 18.512 7.11467 18.4773 7.296 18.408C7.48 18.3387 7.64933 18.2507 7.804 18.144L8.132 18.584C7.948 18.7413 7.72667 18.8653 7.468 18.956C7.20933 19.0467 6.956 19.092 6.708 19.092C6.28933 19.092 5.932 19.0027 5.636 18.824C5.34267 18.6427 5.11867 18.3893 4.964 18.064C4.80933 17.736 4.732 17.352 4.732 16.912C4.732 16.4907 4.80933 16.1133 4.964 15.78C5.12133 15.444 5.34667 15.18 5.64 14.988C5.936 14.796 6.29467 14.7 6.716 14.7C6.98533 14.7 7.23733 14.7413 7.472 14.824C7.70933 14.904 7.92667 15.0253 8.124 15.188L7.796 15.636C7.61733 15.5107 7.43733 15.4173 7.256 15.356C7.07733 15.292 6.89467 15.26 6.708 15.26C6.34533 15.26 6.04667 15.396 5.812 15.668C5.57733 15.94 5.46 16.3547 5.46 16.912C5.46 17.2853 5.51333 17.5907 5.62 17.828C5.72933 18.0627 5.87733 18.236 6.064 18.348C6.25333 18.4573 6.468 18.512 6.708 18.512Z" fill="#FF7F00" fill-opacity="0.2"/>
<path d="M6.708 18.512C6.91867 18.512 7.11467 18.4773 7.296 18.408C7.48 18.3387 7.64933 18.2507 7.804 18.144L8.132 18.584C7.948 18.7413 7.72667 18.8653 7.468 18.956C7.20933 19.0467 6.956 19.092 6.708 19.092C6.28933 19.092 5.932 19.0027 5.636 18.824C5.34267 18.6427 5.11867 18.3893 4.964 18.064C4.80933 17.736 4.732 17.352 4.732 16.912C4.732 16.4907 4.80933 16.1133 4.964 15.78C5.12133 15.444 5.34667 15.18 5.64 14.988C5.936 14.796 6.29467 14.7 6.716 14.7C6.98533 14.7 7.23733 14.7413 7.472 14.824C7.70933 14.904 7.92667 15.0253 8.124 15.188L7.796 15.636C7.61733 15.5107 7.43733 15.4173 7.256 15.356C7.07733 15.292 6.89467 15.26 6.708 15.26C6.34533 15.26 6.04667 15.396 5.812 15.668C5.57733 15.94 5.46 16.3547 5.46 16.912C5.46 17.2853 5.51333 17.5907 5.62 17.828C5.72933 18.0627 5.87733 18.236 6.064 18.348C6.25333 18.4573 6.468 18.512 6.708 18.512Z" fill="#FFFF00" fill-opacity="0.2"/>
<path d="M9.844 19V18.484H10.5V15.304H9.844V14.788H11.012L11.136 15.784C11.2987 15.4373 11.496 15.1693 11.728 14.98C11.96 14.7907 12.2667 14.696 12.648 14.696C12.7653 14.696 12.8693 14.7053 12.96 14.724C13.0533 14.74 13.148 14.7613 13.244 14.788L13.048 15.388C12.96 15.364 12.88 15.3467 12.808 15.336C12.736 15.3227 12.6533 15.316 12.56 15.316C12.2373 15.316 11.96 15.4307 11.728 15.66C11.496 15.8893 11.3107 16.236 11.172 16.7V18.484H12.028V19H9.844ZM12.596 16.212V15.296L12.664 14.788H13.244L13.148 16.212H12.596Z" fill="#FF7F00"/>
<path d="M19.844 19V18.484H20.5V15.304H19.844V14.788H21.012L21.136 15.784C21.2987 15.4373 21.496 15.1693 21.728 14.98C21.96 14.7907 22.2667 14.696 22.648 14.696C22.7653 14.696 22.8693 14.7053 22.96 14.724C23.0533 14.74 23.148 14.7613 23.244 14.788L23.048 15.388C22.96 15.364 22.88 15.3467 22.808 15.336C22.736 15.3227 22.6533 15.316 22.56 15.316C22.2373 15.316 21.96 15.4307 21.728 15.66C21.496 15.8893 21.3107 16.236 21.172 16.7V18.484H22.028V19H19.844ZM22.596 16.212V15.296L22.664 14.788H23.244L23.148 16.212H22.596Z" fill="#00FF00"/>
<path d="M17.924 19H16.972L16.428 15.908L15.836 19H14.908L14.14 14.788H14.828L15.364 18.584L16.036 15.324H16.832L17.468 18.584L18.004 14.788H18.66L17.924 19Z" fill="#FFFF00"/>
<path d="M25.212 19H24.444L26 16.776L24.636 14.788H25.432L26.408 16.356L27.396 14.788H28.164L26.804 16.748L28.356 19H27.532L26.38 17.192L25.212 19Z" fill="#00FFFF"/>
</svg>
