<svg width="32" height="32" viewBox="0 0 32 32" fill="none" xmlns="http://www.w3.org/2000/svg">
<path d="M0 16C0 7.16344 7.16344 0 16 0C24.8366 0 32 7.16344 32 16C32 24.8366 24.8366 32 16 32C7.16344 32 0 24.8366 0 16Z" fill="black"/>
<path d="M7.23025 7.316C7.62758 7.316 7.96492 7.36933 8.24225 7.476C8.52225 7.58 8.77825 7.728 9.01025 7.92L8.36625 8.696C8.21425 8.57067 8.04625 8.472 7.86225 8.4C7.67825 8.32533 7.47825 8.288 7.26225 8.288C7.03025 8.288 6.81825 8.35467 6.62625 8.488C6.43425 8.61867 6.28092 8.82667 6.16625 9.112C6.05158 9.39467 5.99425 9.76267 5.99425 10.216C5.99425 10.6613 6.04892 11.0253 6.15825 11.308C6.27025 11.588 6.42358 11.7947 6.61825 11.928C6.81292 12.0587 7.03558 12.124 7.28625 12.124C7.56358 12.124 7.79425 12.072 7.97825 11.968C8.16225 11.864 8.33158 11.7507 8.48625 11.628L9.08225 12.388C8.87425 12.5933 8.61825 12.7693 8.31425 12.916C8.01025 13.0627 7.64358 13.136 7.21425 13.136C6.71292 13.136 6.26758 13.0253 5.87825 12.804C5.49158 12.58 5.18758 12.252 4.96625 11.82C4.74758 11.3853 4.63825 10.8507 4.63825 10.216C4.63825 9.59733 4.75158 9.072 4.97825 8.64C5.20758 8.208 5.51825 7.88 5.91025 7.656C6.30225 7.42933 6.74225 7.316 7.23025 7.316ZM11.1231 13V12.152H11.6831V9.592H11.1231V8.752H12.6471L12.8791 9.708C13.0311 9.34267 13.2245 9.07067 13.4591 8.892C13.6965 8.71333 13.9858 8.624 14.3271 8.624C14.4711 8.624 14.5991 8.636 14.7111 8.66C14.8231 8.68133 14.9285 8.712 15.0271 8.752L14.6431 9.796C14.5658 9.77467 14.4885 9.75867 14.4111 9.748C14.3338 9.73733 14.2485 9.732 14.1551 9.732C13.8778 9.732 13.6338 9.84533 13.4231 10.072C13.2151 10.2987 13.0565 10.5867 12.9471 10.936V12.152H13.7871V13H11.1231ZM13.9991 10.528V9.288L14.1871 8.752H15.0271L14.7911 10.528H13.9991ZM20.816 11.776C20.816 11.936 20.8373 12.052 20.88 12.124C20.9253 12.196 20.9973 12.2507 21.096 12.288L20.836 13.12C20.5853 13.096 20.3733 13.0413 20.2 12.956C20.0293 12.868 19.8947 12.736 19.796 12.56C19.6333 12.7547 19.4253 12.9 19.172 12.996C18.9187 13.0893 18.66 13.136 18.396 13.136C17.9587 13.136 17.6093 13.012 17.348 12.764C17.0893 12.5133 16.96 12.192 16.96 11.8C16.96 11.3387 17.14 10.9827 17.5 10.732C17.8627 10.4813 18.372 10.356 19.028 10.356H19.6V10.196C19.6 9.97467 19.528 9.81067 19.384 9.704C19.2427 9.59733 19.0347 9.544 18.76 9.544C18.624 9.544 18.4493 9.564 18.236 9.604C18.0227 9.64133 17.8093 9.696 17.596 9.768L17.304 8.928C17.5787 8.824 17.864 8.74533 18.16 8.692C18.4587 8.63867 18.7253 8.612 18.96 8.612C19.592 8.612 20.0587 8.74133 20.36 9C20.664 9.256 20.816 9.62667 20.816 10.112V11.776ZM18.832 12.232C18.968 12.232 19.1107 12.192 19.26 12.112C19.4093 12.0293 19.5227 11.9133 19.6 11.764V11.076H19.288C18.936 11.076 18.6773 11.1307 18.512 11.24C18.3467 11.3467 18.264 11.504 18.264 11.712C18.264 11.8747 18.3133 12.0027 18.412 12.096C18.5133 12.1867 18.6533 12.232 18.832 12.232ZM27.0049 13H25.6089L25.2449 10.144L24.8649 13H23.4929L22.8649 8.752H24.0209L24.2969 12.212L24.7449 9.288H25.8089L26.2089 12.212L26.4929 8.752H27.6089L27.0049 13ZM8.04469 24V23.152H8.60469V20.592H8.04469V19.752H9.56869L9.80069 20.708C9.95269 20.3427 10.146 20.0707 10.3807 19.892C10.618 19.7133 10.9074 19.624 11.2487 19.624C11.3927 19.624 11.5207 19.636 11.6327 19.66C11.7447 19.6813 11.85 19.712 11.9487 19.752L11.5647 20.796C11.4874 20.7747 11.41 20.7587 11.3327 20.748C11.2554 20.7373 11.17 20.732 11.0767 20.732C10.7994 20.732 10.5554 20.8453 10.3447 21.072C10.1367 21.2987 9.97802 21.5867 9.86869 21.936V23.152H10.7087V24H8.04469ZM10.9207 21.528V20.288L11.1087 19.752H11.9487L11.7127 21.528H10.9207ZM16.7576 19.752V23.136H17.8376V24H14.2896V23.136H15.4936V20.616H14.3296V19.752H16.7576ZM15.9936 17.528C16.2122 17.528 16.3909 17.596 16.5296 17.732C16.6682 17.868 16.7376 18.0373 16.7376 18.24C16.7376 18.4427 16.6682 18.6133 16.5296 18.752C16.3909 18.888 16.2122 18.956 15.9936 18.956C15.7722 18.956 15.5909 18.888 15.4496 18.752C15.3109 18.6133 15.2416 18.4427 15.2416 18.24C15.2416 18.0373 15.3109 17.868 15.4496 17.732C15.5909 17.596 15.7722 17.528 15.9936 17.528ZM21.3024 24H19.9344L21.3904 21.768L20.0704 19.752H21.4864L22.1664 21.112L22.8224 19.752H24.1664L22.9184 21.72L24.3824 24H22.9504L22.1104 22.412L21.3024 24Z" fill="#D0FF00"/>
</svg>
