<svg width="32" height="32" viewBox="0 0 32 32" fill="none" xmlns="http://www.w3.org/2000/svg">
<rect width="32" height="32" fill="#FFDD44"/>
<path d="M8.3292 9.495C8.63254 9.495 8.9172 9.43667 9.1832 9.32C9.45387 9.19867 9.7222 9.04467 9.9882 8.858L10.9752 10.258C10.6485 10.538 10.2495 10.7713 9.7782 10.958C9.31154 11.1447 8.78887 11.238 8.2102 11.238C7.4122 11.238 6.7262 11.0747 6.1522 10.748C5.5782 10.4167 5.1372 9.95933 4.8292 9.376C4.5212 8.788 4.3672 8.10667 4.3672 7.332C4.3672 6.55733 4.52354 5.869 4.8362 5.267C5.15354 4.66033 5.60154 4.18433 6.1802 3.839C6.76354 3.49367 7.4542 3.321 8.2522 3.321C8.81687 3.321 9.31854 3.40033 9.7572 3.559C10.2005 3.713 10.6065 3.944 10.9752 4.252L10.0162 5.582C9.7642 5.40467 9.4982 5.267 9.2182 5.169C8.9382 5.071 8.64654 5.022 8.3432 5.022C7.84387 5.022 7.4402 5.19933 7.1322 5.554C6.82887 5.904 6.6772 6.49667 6.6772 7.332C6.6772 7.878 6.74954 8.30967 6.8942 8.627C7.03887 8.93967 7.23487 9.16367 7.4822 9.299C7.7342 9.42967 8.01654 9.495 8.3292 9.495ZM12.8527 11V9.516H13.8327V5.036H12.8527V3.566H15.5197L15.9257 5.239C16.1917 4.59967 16.5301 4.12367 16.9407 3.811C17.3561 3.49833 17.8624 3.342 18.4597 3.342C18.7117 3.342 18.9357 3.363 19.1317 3.405C19.3277 3.44233 19.5121 3.496 19.6847 3.566L19.0127 5.393C18.8774 5.35567 18.7421 5.32767 18.6067 5.309C18.4714 5.29033 18.3221 5.281 18.1587 5.281C17.6734 5.281 17.2464 5.47933 16.8777 5.876C16.5137 6.27267 16.2361 6.77667 16.0447 7.388V9.516H17.5147V11H12.8527ZM17.8857 6.674V4.504L18.2147 3.566H19.6847L19.2717 6.674H17.8857ZM25.0553 0.611999V8.662C25.0553 8.96067 25.1393 9.17533 25.3073 9.306C25.4799 9.432 25.7156 9.495 26.0143 9.495C26.2056 9.495 26.3899 9.474 26.5673 9.432C26.7446 9.38533 26.9103 9.33167 27.0643 9.271L27.5963 10.748C27.3443 10.8787 27.0409 10.993 26.6863 11.091C26.3316 11.189 25.9186 11.238 25.4473 11.238C24.5513 11.238 23.8933 10.9813 23.4733 10.468C23.0533 9.95 22.8433 9.257 22.8433 8.389V2.124H20.6523V0.611999H25.0553ZM4.7102 29V19.298H7.0062V27.187H11.2132L10.9752 29H4.7102ZM19.0407 26.858C19.0407 27.138 19.0781 27.341 19.1527 27.467C19.2321 27.593 19.3581 27.6887 19.5307 27.754L19.0757 29.21C18.6371 29.168 18.2661 29.0723 17.9627 28.923C17.6641 28.769 17.4284 28.538 17.2557 28.23C16.9711 28.5707 16.6071 28.825 16.1637 28.993C15.7204 29.1563 15.2677 29.238 14.8057 29.238C14.0404 29.238 13.4291 29.021 12.9717 28.587C12.5191 28.1483 12.2927 27.586 12.2927 26.9C12.2927 26.0927 12.6077 25.4697 13.2377 25.031C13.8724 24.5923 14.7637 24.373 15.9117 24.373H16.9127V24.093C16.9127 23.7057 16.7867 23.4187 16.5347 23.232C16.2874 23.0453 15.9234 22.952 15.4427 22.952C15.2047 22.952 14.8991 22.987 14.5257 23.057C14.1524 23.1223 13.7791 23.218 13.4057 23.344L12.8947 21.874C13.3754 21.692 13.8747 21.5543 14.3927 21.461C14.9154 21.3677 15.3821 21.321 15.7927 21.321C16.8987 21.321 17.7154 21.5473 18.2427 22C18.7747 22.448 19.0407 23.0967 19.0407 23.946V26.858ZM15.5687 27.656C15.8067 27.656 16.0564 27.586 16.3177 27.446C16.5791 27.3013 16.7774 27.0983 16.9127 26.837V25.633H16.3667C15.7507 25.633 15.2981 25.7287 15.0087 25.92C14.7194 26.1067 14.5747 26.382 14.5747 26.746C14.5747 27.0307 14.6611 27.2547 14.8337 27.418C15.0111 27.5767 15.2561 27.656 15.5687 27.656ZM23.3893 22.329C23.6226 22.021 23.9026 21.776 24.2293 21.594C24.5606 21.412 24.9153 21.321 25.2933 21.321C25.9326 21.321 26.4529 21.482 26.8543 21.804C27.2603 22.126 27.5589 22.581 27.7503 23.169C27.9416 23.757 28.0373 24.4547 28.0373 25.262C28.0373 26.0273 27.9229 26.711 27.6943 27.313C27.4703 27.9103 27.1366 28.3817 26.6933 28.727C26.2499 29.0677 25.7063 29.238 25.0623 29.238C24.2829 29.238 23.6693 28.9347 23.2213 28.328L23.1373 29H21.1773V18.612L23.3893 18.381V22.329ZM24.4813 27.628C24.8733 27.628 25.1836 27.4483 25.4123 27.089C25.6409 26.725 25.7553 26.1253 25.7553 25.29C25.7553 24.674 25.7063 24.198 25.6083 23.862C25.5149 23.5213 25.3796 23.2857 25.2023 23.155C25.0296 23.0197 24.8266 22.952 24.5933 22.952C24.3459 22.952 24.1243 23.029 23.9283 23.183C23.7323 23.337 23.5526 23.547 23.3893 23.813V26.949C23.5293 27.1683 23.6856 27.3363 23.8583 27.453C24.0309 27.5697 24.2386 27.628 24.4813 27.628Z" fill="black"/>
</svg>
